<mxfile host="app.diagrams.net" modified="2020-11-17T10:13:29.082Z" agent="5.0 (Windows NT 10.0; Win64; x64) AppleWebKit/537.36 (KHTML, like Gecko) Chrome/86.0.4240.198 Safari/537.36" etag="prePyKXGThvGA4A26QY7" version="13.9.9" type="github">
  <diagram id="C5RBs43oDa-KdzZeNtuy" name="Page-1">
    <mxGraphModel dx="1422" dy="794" grid="1" gridSize="10" guides="1" tooltips="1" connect="1" arrows="1" fold="1" page="1" pageScale="1" pageWidth="827" pageHeight="1169" math="0" shadow="0">
      <root>
        <mxCell id="WIyWlLk6GJQsqaUBKTNV-0" />
        <mxCell id="WIyWlLk6GJQsqaUBKTNV-1" parent="WIyWlLk6GJQsqaUBKTNV-0" />
        <mxCell id="fNIV9jMZSykZiAhYXZ0E-32" style="edgeStyle=orthogonalEdgeStyle;rounded=0;orthogonalLoop=1;jettySize=auto;html=1;" parent="WIyWlLk6GJQsqaUBKTNV-1" source="fNIV9jMZSykZiAhYXZ0E-50" edge="1">
          <mxGeometry relative="1" as="geometry">
            <mxPoint x="269" y="530" as="targetPoint" />
            <Array as="points">
              <mxPoint x="269" y="430" />
              <mxPoint x="269" y="430" />
            </Array>
          </mxGeometry>
        </mxCell>
        <mxCell id="fNIV9jMZSykZiAhYXZ0E-33" value="授权" style="rhombus;whiteSpace=wrap;html=1;" parent="WIyWlLk6GJQsqaUBKTNV-1" vertex="1">
          <mxGeometry x="229" y="290" width="80" height="80" as="geometry" />
        </mxCell>
        <mxCell id="fNIV9jMZSykZiAhYXZ0E-34" style="edgeStyle=orthogonalEdgeStyle;rounded=0;orthogonalLoop=1;jettySize=auto;html=1;exitX=0.5;exitY=1;exitDx=0;exitDy=0;entryX=0.5;entryY=0;entryDx=0;entryDy=0;" parent="WIyWlLk6GJQsqaUBKTNV-1" source="fNIV9jMZSykZiAhYXZ0E-39" target="fNIV9jMZSykZiAhYXZ0E-33" edge="1">
          <mxGeometry relative="1" as="geometry" />
        </mxCell>
        <mxCell id="fNIV9jMZSykZiAhYXZ0E-35" style="edgeStyle=orthogonalEdgeStyle;rounded=0;orthogonalLoop=1;jettySize=auto;html=1;exitX=0.75;exitY=1;exitDx=0;exitDy=0;" parent="WIyWlLk6GJQsqaUBKTNV-1" source="fNIV9jMZSykZiAhYXZ0E-37" target="fNIV9jMZSykZiAhYXZ0E-40" edge="1">
          <mxGeometry relative="1" as="geometry">
            <Array as="points">
              <mxPoint x="580" y="90" />
            </Array>
          </mxGeometry>
        </mxCell>
        <mxCell id="fNIV9jMZSykZiAhYXZ0E-36" style="edgeStyle=orthogonalEdgeStyle;rounded=0;orthogonalLoop=1;jettySize=auto;html=1;exitX=0.25;exitY=1;exitDx=0;exitDy=0;entryX=0.5;entryY=0;entryDx=0;entryDy=0;" parent="WIyWlLk6GJQsqaUBKTNV-1" source="fNIV9jMZSykZiAhYXZ0E-37" target="fNIV9jMZSykZiAhYXZ0E-39" edge="1">
          <mxGeometry relative="1" as="geometry">
            <Array as="points">
              <mxPoint x="269" y="90" />
            </Array>
          </mxGeometry>
        </mxCell>
        <mxCell id="fNIV9jMZSykZiAhYXZ0E-37" value="授权" style="rounded=0;whiteSpace=wrap;html=1;fillColor=#dae8fc;strokeColor=#6c8ebf;" parent="WIyWlLk6GJQsqaUBKTNV-1" vertex="1">
          <mxGeometry x="109" y="30" width="630" height="60" as="geometry" />
        </mxCell>
        <mxCell id="fNIV9jMZSykZiAhYXZ0E-38" value="" style="group" parent="WIyWlLk6GJQsqaUBKTNV-1" vertex="1" connectable="0">
          <mxGeometry x="109" y="30" width="630" height="200" as="geometry" />
        </mxCell>
        <mxCell id="fNIV9jMZSykZiAhYXZ0E-39" value="信封" style="rounded=0;whiteSpace=wrap;html=1;fillColor=#fff2cc;strokeColor=#d6b656;" parent="fNIV9jMZSykZiAhYXZ0E-38" vertex="1">
          <mxGeometry x="100" y="140" width="120" height="60" as="geometry" />
        </mxCell>
        <mxCell id="fNIV9jMZSykZiAhYXZ0E-40" value="万联优选" style="whiteSpace=wrap;html=1;fillColor=#f8cecc;strokeColor=#b85450;" parent="fNIV9jMZSykZiAhYXZ0E-38" vertex="1">
          <mxGeometry x="411" y="140" width="120" height="60" as="geometry" />
        </mxCell>
        <mxCell id="fNIV9jMZSykZiAhYXZ0E-41" value="授权" style="rounded=0;whiteSpace=wrap;html=1;fillColor=#dae8fc;strokeColor=#6c8ebf;" parent="fNIV9jMZSykZiAhYXZ0E-38" vertex="1">
          <mxGeometry width="630" height="60" as="geometry" />
        </mxCell>
        <mxCell id="fNIV9jMZSykZiAhYXZ0E-42" value="N" style="endArrow=classic;html=1;exitX=0;exitY=0.5;exitDx=0;exitDy=0;" parent="WIyWlLk6GJQsqaUBKTNV-1" source="fNIV9jMZSykZiAhYXZ0E-33" edge="1">
          <mxGeometry x="-0.1667" relative="1" as="geometry">
            <mxPoint x="370" y="420" as="sourcePoint" />
            <mxPoint x="269" y="250" as="targetPoint" />
            <Array as="points">
              <mxPoint x="229" y="250" />
            </Array>
            <mxPoint as="offset" />
          </mxGeometry>
        </mxCell>
        <mxCell id="fNIV9jMZSykZiAhYXZ0E-43" style="edgeStyle=orthogonalEdgeStyle;rounded=0;orthogonalLoop=1;jettySize=auto;html=1;exitX=0.5;exitY=1;exitDx=0;exitDy=0;entryX=0.5;entryY=0;entryDx=0;entryDy=0;" parent="WIyWlLk6GJQsqaUBKTNV-1" source="fNIV9jMZSykZiAhYXZ0E-40" target="fNIV9jMZSykZiAhYXZ0E-46" edge="1">
          <mxGeometry relative="1" as="geometry">
            <mxPoint x="580" y="410" as="targetPoint" />
          </mxGeometry>
        </mxCell>
        <mxCell id="fNIV9jMZSykZiAhYXZ0E-44" style="edgeStyle=orthogonalEdgeStyle;rounded=0;orthogonalLoop=1;jettySize=auto;html=1;exitX=0.5;exitY=1;exitDx=0;exitDy=0;" parent="WIyWlLk6GJQsqaUBKTNV-1" source="fNIV9jMZSykZiAhYXZ0E-46" edge="1">
          <mxGeometry relative="1" as="geometry">
            <mxPoint x="580" y="590" as="targetPoint" />
          </mxGeometry>
        </mxCell>
        <mxCell id="fNIV9jMZSykZiAhYXZ0E-45" style="edgeStyle=orthogonalEdgeStyle;rounded=0;orthogonalLoop=1;jettySize=auto;html=1;exitX=1;exitY=0.5;exitDx=0;exitDy=0;entryX=1;entryY=0.5;entryDx=0;entryDy=0;" parent="WIyWlLk6GJQsqaUBKTNV-1" source="fNIV9jMZSykZiAhYXZ0E-46" target="fNIV9jMZSykZiAhYXZ0E-57" edge="1">
          <mxGeometry relative="1" as="geometry">
            <mxPoint x="770" y="770" as="targetPoint" />
            <Array as="points">
              <mxPoint x="760" y="460" />
              <mxPoint x="760" y="810" />
            </Array>
          </mxGeometry>
        </mxCell>
        <mxCell id="fNIV9jMZSykZiAhYXZ0E-46" value="验证用户" style="rhombus;whiteSpace=wrap;html=1;" parent="WIyWlLk6GJQsqaUBKTNV-1" vertex="1">
          <mxGeometry x="540" y="420" width="80" height="80" as="geometry" />
        </mxCell>
        <mxCell id="fNIV9jMZSykZiAhYXZ0E-47" value="Y" style="text;html=1;align=center;verticalAlign=middle;resizable=0;points=[];autosize=1;" parent="WIyWlLk6GJQsqaUBKTNV-1" vertex="1">
          <mxGeometry x="414" y="310" width="20" height="20" as="geometry" />
        </mxCell>
        <mxCell id="fNIV9jMZSykZiAhYXZ0E-48" value="" style="endArrow=classic;html=1;" parent="WIyWlLk6GJQsqaUBKTNV-1" edge="1">
          <mxGeometry relative="1" as="geometry">
            <mxPoint x="310" y="329.5" as="sourcePoint" />
            <mxPoint x="580" y="330" as="targetPoint" />
          </mxGeometry>
        </mxCell>
        <mxCell id="fNIV9jMZSykZiAhYXZ0E-49" style="edgeStyle=orthogonalEdgeStyle;rounded=0;orthogonalLoop=1;jettySize=auto;html=1;" parent="WIyWlLk6GJQsqaUBKTNV-1" source="fNIV9jMZSykZiAhYXZ0E-50" edge="1">
          <mxGeometry relative="1" as="geometry">
            <mxPoint x="269" y="1010" as="targetPoint" />
            <Array as="points">
              <mxPoint x="269" y="650" />
              <mxPoint x="269" y="650" />
            </Array>
          </mxGeometry>
        </mxCell>
        <mxCell id="fNIV9jMZSykZiAhYXZ0E-50" value="邀请码" style="rounded=0;whiteSpace=wrap;html=1;" parent="WIyWlLk6GJQsqaUBKTNV-1" vertex="1">
          <mxGeometry x="209" y="510" width="120" height="60" as="geometry" />
        </mxCell>
        <mxCell id="fNIV9jMZSykZiAhYXZ0E-51" style="edgeStyle=orthogonalEdgeStyle;rounded=0;orthogonalLoop=1;jettySize=auto;html=1;" parent="WIyWlLk6GJQsqaUBKTNV-1" source="fNIV9jMZSykZiAhYXZ0E-33" target="fNIV9jMZSykZiAhYXZ0E-50" edge="1">
          <mxGeometry relative="1" as="geometry">
            <mxPoint x="269" y="530" as="targetPoint" />
            <mxPoint x="269" y="370" as="sourcePoint" />
            <Array as="points" />
          </mxGeometry>
        </mxCell>
        <mxCell id="fNIV9jMZSykZiAhYXZ0E-52" value="N" style="endArrow=classic;html=1;exitX=0;exitY=0.5;exitDx=0;exitDy=0;" parent="WIyWlLk6GJQsqaUBKTNV-1" source="fNIV9jMZSykZiAhYXZ0E-46" edge="1">
          <mxGeometry relative="1" as="geometry">
            <mxPoint x="481" y="450" as="sourcePoint" />
            <mxPoint x="270" y="460" as="targetPoint" />
            <Array as="points" />
          </mxGeometry>
        </mxCell>
        <mxCell id="fNIV9jMZSykZiAhYXZ0E-53" style="edgeStyle=orthogonalEdgeStyle;rounded=0;orthogonalLoop=1;jettySize=auto;html=1;exitX=0.5;exitY=1;exitDx=0;exitDy=0;entryX=0.5;entryY=0;entryDx=0;entryDy=0;" parent="WIyWlLk6GJQsqaUBKTNV-1" source="fNIV9jMZSykZiAhYXZ0E-54" target="fNIV9jMZSykZiAhYXZ0E-57" edge="1">
          <mxGeometry relative="1" as="geometry">
            <mxPoint x="580" y="720" as="targetPoint" />
          </mxGeometry>
        </mxCell>
        <mxCell id="fNIV9jMZSykZiAhYXZ0E-54" value="注册" style="rounded=0;whiteSpace=wrap;html=1;" parent="WIyWlLk6GJQsqaUBKTNV-1" vertex="1">
          <mxGeometry x="520" y="590" width="120" height="60" as="geometry" />
        </mxCell>
        <mxCell id="fNIV9jMZSykZiAhYXZ0E-55" value="" style="endArrow=classic;html=1;entryX=0;entryY=0.5;entryDx=0;entryDy=0;" parent="WIyWlLk6GJQsqaUBKTNV-1" target="fNIV9jMZSykZiAhYXZ0E-54" edge="1">
          <mxGeometry width="50" height="50" relative="1" as="geometry">
            <mxPoint x="270" y="620" as="sourcePoint" />
            <mxPoint x="450" y="500" as="targetPoint" />
          </mxGeometry>
        </mxCell>
        <mxCell id="fNIV9jMZSykZiAhYXZ0E-56" style="edgeStyle=orthogonalEdgeStyle;rounded=0;orthogonalLoop=1;jettySize=auto;html=1;exitX=0.5;exitY=1;exitDx=0;exitDy=0;" parent="WIyWlLk6GJQsqaUBKTNV-1" source="fNIV9jMZSykZiAhYXZ0E-57" edge="1">
          <mxGeometry relative="1" as="geometry">
            <mxPoint x="580" y="1010" as="targetPoint" />
          </mxGeometry>
        </mxCell>
        <mxCell id="fNIV9jMZSykZiAhYXZ0E-57" value="获取用户token" style="rounded=0;whiteSpace=wrap;html=1;" parent="WIyWlLk6GJQsqaUBKTNV-1" vertex="1">
          <mxGeometry x="520" y="780" width="120" height="60" as="geometry" />
        </mxCell>
        <mxCell id="fNIV9jMZSykZiAhYXZ0E-58" value="Y" style="text;html=1;align=center;verticalAlign=middle;resizable=0;points=[];autosize=1;" parent="WIyWlLk6GJQsqaUBKTNV-1" vertex="1">
          <mxGeometry x="760" y="610" width="20" height="20" as="geometry" />
        </mxCell>
        <mxCell id="fNIV9jMZSykZiAhYXZ0E-59" value="返回token" style="endArrow=classic;html=1;" parent="WIyWlLk6GJQsqaUBKTNV-1" edge="1">
          <mxGeometry relative="1" as="geometry">
            <mxPoint x="580" y="890" as="sourcePoint" />
            <mxPoint x="270" y="890" as="targetPoint" />
          </mxGeometry>
        </mxCell>
        <mxCell id="fNIV9jMZSykZiAhYXZ0E-60" value="&lt;span&gt;信封&lt;/span&gt;" style="rounded=0;whiteSpace=wrap;html=1;fillColor=#fff2cc;strokeColor=#d6b656;" parent="WIyWlLk6GJQsqaUBKTNV-1" vertex="1">
          <mxGeometry x="209" y="1010" width="120" height="60" as="geometry" />
        </mxCell>
        <mxCell id="fNIV9jMZSykZiAhYXZ0E-61" value="" style="group" parent="WIyWlLk6GJQsqaUBKTNV-1" vertex="1" connectable="0">
          <mxGeometry x="209" y="1010" width="431" height="60" as="geometry" />
        </mxCell>
        <mxCell id="fNIV9jMZSykZiAhYXZ0E-62" value="万联优选" style="rounded=0;whiteSpace=wrap;html=1;fillColor=#f8cecc;strokeColor=#b85450;" parent="fNIV9jMZSykZiAhYXZ0E-61" vertex="1">
          <mxGeometry x="311" width="120" height="60" as="geometry" />
        </mxCell>
        <mxCell id="fNIV9jMZSykZiAhYXZ0E-63" value="&lt;span&gt;信封&lt;/span&gt;" style="rounded=0;whiteSpace=wrap;html=1;fillColor=#fff2cc;strokeColor=#d6b656;" parent="fNIV9jMZSykZiAhYXZ0E-61" vertex="1">
          <mxGeometry width="120" height="60" as="geometry" />
        </mxCell>
      </root>
    </mxGraphModel>
  </diagram>
</mxfile>
